<svg width="49" height="48" viewBox="0 0 49 48" fill="none" xmlns="http://www.w3.org/2000/svg">
<path fill-rule="evenodd" clip-rule="evenodd" d="M3.63125 12.1467C3.8959 10.9686 4.54647 9.91683 5.47642 9.16349C6.40637 8.41014 7.56057 7.99992 8.75 8H40.25C41.4394 7.99992 42.5936 8.41014 43.5236 9.16349C44.4535 9.91683 45.1041 10.9686 45.3687 12.1467L24.5 25.104L3.63125 12.1467ZM3.5 15.192V34.136L18.7329 24.648L3.5 15.192ZM21.2476 26.2133L4.00138 36.952C4.42748 37.8648 5.10001 38.6358 5.94068 39.1754C6.78135 39.715 7.75558 40.001 8.75 40H40.25C41.2443 40.0002 42.2181 39.7136 43.0583 39.1736C43.8985 38.6335 44.5705 37.8622 44.996 36.9493L27.7498 26.2107L24.5 28.2293L21.2476 26.2107V26.2133ZM30.2671 24.6507L45.5 34.136V15.192L30.2671 24.648V24.6507Z" fill="#25282B"/>
</svg>
